<?xml version="1.0" encoding="iso-8859-1"?>
<!-- Uploaded to: SVG Repo, www.svgrepo.com, Generator: SVG Repo Mixer Tools -->
<svg version="1.1" id="Layer_1" xmlns="http://www.w3.org/2000/svg" xmlns:xlink="http://www.w3.org/1999/xlink" 
	 viewBox="0 0 512 512" xml:space="preserve">
<circle style="fill:#FEE187;" cx="256" cy="256" r="256"/>
<path style="fill:#FFC61B;" d="M103.952,341.333L273.98,511.362C406.974,502.132,512,391.339,512,256
	c0-3.112-0.076-6.206-0.186-9.29l-86.871-86.873l-317.857,15.055l5.629,5.629l-25.657,4.658l42.236,42.236v112.854L103.952,341.333z
	"/>
<g>
	<path style="fill:#386895;" d="M129.293,333.543c-3.332,0-6.034-2.701-6.034-6.034V177.883c0-3.332,2.701-6.034,6.034-6.034
		s6.034,2.701,6.034,6.034v149.626C135.327,330.842,132.625,333.543,129.293,333.543z"/>
	<path style="fill:#386895;" d="M189.957,333.543c-3.332,0-6.034-2.701-6.034-6.034V177.883c0-3.332,2.701-6.034,6.034-6.034
		s6.034,2.701,6.034,6.034v149.626C195.991,330.842,193.289,333.543,189.957,333.543z"/>
</g>
<g>
	<rect x="103.952" y="325.973" style="fill:#E09112;" width="50.683" height="15.358"/>
	<rect x="164.616" y="325.973" style="fill:#E09112;" width="50.683" height="15.358"/>
</g>
<g>
	<path style="fill:#273B7A;" d="M382.707,333.543c-3.332,0-6.034-2.701-6.034-6.034V177.883c0-3.332,2.701-6.034,6.034-6.034
		s6.034,2.701,6.034,6.034v149.626C388.741,330.842,386.039,333.543,382.707,333.543z"/>
	<path style="fill:#273B7A;" d="M322.043,333.543c-3.332,0-6.034-2.701-6.034-6.034V177.883c0-3.332,2.701-6.034,6.034-6.034
		s6.034,2.701,6.034,6.034v149.626C328.076,330.842,325.373,333.543,322.043,333.543z"/>
</g>
<g>
	<rect x="357.366" y="325.973" style="fill:#FF5419;" width="50.683" height="15.358"/>
	<rect x="296.701" y="325.973" style="fill:#FF5419;" width="50.683" height="15.358"/>
</g>
<rect x="243.329" y="177.89" style="fill:#386895;" width="25.341" height="202.731"/>
<rect x="255.431" y="177.89" style="fill:#273B7A;" width="13.245" height="202.731"/>
<path style="fill:#D35933;" d="M96.442,166.036C199.592,136.875,256,76.517,256,76.517s56.408,60.357,159.558,89.519
	C415.558,166.036,288.234,201.3,96.442,166.036z"/>
<path style="fill:#B54324;" d="M415.558,166.036C312.408,136.875,256,76.517,256,76.517s-0.207,0.221-0.574,0.598v104.548
	C355.371,182.706,415.558,166.036,415.558,166.036z"/>
<path style="fill:#FFFFFF;" d="M255.445,76.519c-0.014,0.038-22.938,61.111-65.331,102.097c51.757,4.286,96.304,3.6,131.772,1.057
	C278.778,138.681,255.452,76.535,255.445,76.519L255.445,76.519z"/>
<path style="fill:#D0D1D3;" d="M321.886,179.672c-43.108-40.991-66.434-103.138-66.441-103.155l0,0c0,0-0.016,0.04-0.019,0.05
	v105.089C280.112,181.901,302.38,181.07,321.886,179.672z"/>
<rect id="SVGCleanerId_0" x="87.057" y="159.841" style="fill:#FF7F4F;" width="337.886" height="25.341"/>
<g>
	<rect id="SVGCleanerId_0_1_" x="87.057" y="159.841" style="fill:#FF7F4F;" width="337.886" height="25.341"/>
</g>
<rect x="255.431" y="159.841" style="fill:#D35933;" width="169.512" height="25.341"/>
<path style="fill:#273B7A;" d="M217.988,397.126h76.024c6.997,0,12.671-5.673,12.671-12.671l0,0c0-6.997-5.673-12.671-12.671-12.671
	h-76.024c-6.997,0-12.671,5.673-12.671,12.671l0,0C205.317,391.452,210.991,397.126,217.988,397.126z"/>
<path style="fill:#121149;" d="M294.012,371.784h-38.586v25.341h38.586c6.997,0,12.671-5.673,12.671-12.671
	S301.009,371.784,294.012,371.784z"/>
</svg>